<svg width="602" height="634" viewBox="0 0 602 634" fill="none" xmlns="http://www.w3.org/2000/svg">
<path d="M295.079 3.46831C299.703 -1.15618 307.201 -1.15603 311.826 3.46831L382.586 74.2281C383.6 75.2428 384.392 76.3959 384.962 77.6265C500.751 113.553 584.844 221.516 584.844 349.119C584.844 371.062 582.356 392.425 577.649 412.94L598.058 433.349C602.683 437.974 602.683 445.473 598.058 450.097L527.3 520.856C527.181 520.974 527.061 521.089 526.939 521.201C526.888 521.248 526.835 521.295 526.783 521.341C526.737 521.382 526.691 521.422 526.644 521.462C474.714 589.46 392.797 633.332 300.632 633.332C206.493 633.332 123.046 587.563 71.3249 517.064L4.35814 450.097C-0.266518 445.473 -0.266512 437.974 4.35814 433.349L23.8308 413.876C18.9836 393.074 16.4187 371.396 16.4187 349.119C16.4189 219.017 103.837 109.333 223.139 75.5992C223.492 75.1198 223.886 74.6617 224.319 74.2281L295.079 3.46831ZM159.135 192.611C149.219 192.611 141.18 200.65 141.179 210.567C141.179 256.842 166.797 295.659 198.352 322.227C224.278 344.055 256.152 359.291 285.479 363.903V490.229H185.5C157.875 490.229 133.241 506.034 130.827 530.672C129.586 543.344 135.088 555.327 145.704 563.388C155.836 571.082 169.641 574.618 185.5 574.618H446.644C456.561 574.618 464.6 566.578 464.6 556.662C464.6 546.745 456.561 538.706 446.644 538.706H185.5C174.45 538.706 169.26 536.182 167.422 534.787C166.97 534.444 166.725 534.179 166.603 534.024C166.735 533.559 167.328 532.066 169.759 530.307C172.578 528.268 177.673 526.141 185.5 526.141H303.435C313.352 526.141 321.391 518.102 321.391 508.185V364.637C372.357 360.42 408.828 338.306 432.872 309.59C459.117 278.245 469.896 239.861 469.896 210.567C469.896 200.65 461.857 192.611 451.94 192.611H159.135ZM456.818 441.725L518.92 503.826L581.02 441.725L518.92 379.624L456.818 441.725ZM21.3161 441.648L83.4031 503.736L145.505 441.635L83.4167 379.547L21.3161 441.648ZM241.405 82.6539L303.493 144.742L365.594 82.6412L303.506 20.5533L241.405 82.6539Z" fill="#FCCA46"/>
</svg>
